<svg width="51" height="51" viewBox="0 0 51 51" fill="none" xmlns="http://www.w3.org/2000/svg">
<circle cx="25.9967" cy="25.2094" r="25" fill="#F6C400"/>
<g clip-path="url(#clip0_2705_2807)">
<path d="M24.6216 35.35C24.338 35.35 24.106 35.118 24.106 34.8344V34.6625H20.1528C18.9239 34.6625 17.9185 33.6571 17.9185 32.4282V31.225H17.0591C16.7755 31.225 16.5435 30.993 16.5435 30.7094V30.5375C15.7872 30.5375 15.1685 29.9188 15.1685 29.1625V26.7563C15.1685 26 15.7872 25.3813 16.5435 25.3813V25.2094C16.5435 24.9258 16.7755 24.6938 17.0591 24.6938H17.5747V23.4907C17.5747 19.9672 19.779 16.809 23.0747 15.5887V14.8969C23.0747 14.6133 23.3067 14.3813 23.5903 14.3813H28.4028C28.6864 14.3813 28.9185 14.6133 28.9185 14.8969V15.5887C30.0528 16.0098 31.097 16.6801 31.9521 17.5352C32.7384 18.3215 33.3571 19.2368 33.7825 20.268C34.2079 21.2993 34.4228 22.3821 34.4185 23.495V24.6981H34.9341C35.2177 24.6981 35.4497 24.9301 35.4497 25.2137V25.3856C36.206 25.3856 36.8247 26.0043 36.8247 26.7606V29.1668C36.8247 29.9231 36.206 30.5418 35.4497 30.5418V30.7137C35.4497 30.9973 35.2177 31.2293 34.9341 31.2293H33.0134C32.9403 31.4313 32.7513 31.5731 32.5278 31.5731H31.1528C30.8692 31.5731 30.6372 31.3411 30.6372 31.0575V24.8657C30.6372 24.5821 30.8692 24.35 31.1528 24.35H32.5278C32.7513 24.35 32.9446 24.4918 33.0134 24.6938H33.3872V23.4907C33.3915 21.5442 32.6052 19.6364 31.2216 18.2657C30.5169 17.561 29.6919 17.011 28.7681 16.6371C28.6735 16.7317 28.5446 16.7875 28.4028 16.7875H23.5903C23.4528 16.7875 23.3196 16.7317 23.2251 16.6371C20.4579 17.7586 18.606 20.4957 18.606 23.4907V24.6938H18.9798C19.0528 24.4918 19.2419 24.35 19.4653 24.35H20.8403C21.1239 24.35 21.356 24.5821 21.356 24.8657V31.0532C21.356 31.3368 21.1239 31.5688 20.8403 31.5688H19.4653C19.2419 31.5688 19.0485 31.427 18.9798 31.225H18.9497V32.4282C18.9497 33.0899 19.4911 33.6313 20.1528 33.6313H24.106V33.4594C24.106 33.1758 24.338 32.9438 24.6216 32.9438H27.3716C27.6552 32.9438 27.8872 33.1758 27.8872 33.4594V34.8344C27.8872 35.118 27.6552 35.35 27.3716 35.35H24.6216ZM26.856 34.3188V33.975H25.1372V34.3188H26.856ZM32.0122 30.5375V25.3813H31.6685V30.5375H32.0122ZM20.3247 30.5375V25.3813H19.981V30.5375H20.3247ZM34.4185 30.1938V25.725H33.0435V30.1938H34.4185ZM18.9497 30.1938V25.725H17.5747V30.1938H18.9497ZM35.4497 29.5063C35.6388 29.5063 35.7935 29.3516 35.7935 29.1625V26.7563C35.7935 26.5672 35.6388 26.4125 35.4497 26.4125V29.5063ZM16.5435 26.4125C16.3544 26.4125 16.1997 26.5672 16.1997 26.7563V29.1625C16.1997 29.3516 16.3544 29.5063 16.5435 29.5063V26.4125ZM27.8872 15.7563V15.4125H24.106V15.7563H27.8872Z" fill="white"/>
<path d="M35.4497 25.5532H35.2778V25.2094C35.2778 25.0203 35.1231 24.8657 34.9341 24.8657H34.2466V23.4907C34.2509 21.3036 33.3829 19.2024 31.8317 17.6555C30.9595 16.7875 29.9067 16.1215 28.7466 15.709V14.8969C28.7466 14.7078 28.5919 14.5532 28.4028 14.5532H23.5903C23.4013 14.5532 23.2466 14.7078 23.2466 14.8969V15.709C19.9509 16.8778 17.7466 19.993 17.7466 23.4907V24.8657H17.0591C16.87 24.8657 16.7153 25.0203 16.7153 25.2094V25.5532H16.5435C15.8774 25.5532 15.3403 26.0903 15.3403 26.7563V29.1625C15.3403 29.8286 15.8774 30.3657 16.5435 30.3657H16.7153V30.7094C16.7153 30.8985 16.87 31.0532 17.0591 31.0532H18.0903V32.4282C18.0903 33.5668 19.0142 34.4907 20.1528 34.4907H24.2778V34.8344C24.2778 35.0235 24.4325 35.1782 24.6216 35.1782H27.3716C27.5606 35.1782 27.7153 35.0235 27.7153 34.8344V33.4594C27.7153 33.2703 27.5606 33.1157 27.3716 33.1157H24.6216C24.4325 33.1157 24.2778 33.2703 24.2778 33.4594V33.8032H20.1528C19.3923 33.8032 18.7778 33.1887 18.7778 32.4282V31.0532H19.1216C19.1216 31.2422 19.2763 31.3969 19.4653 31.3969H20.8403C21.0294 31.3969 21.1841 31.2422 21.1841 31.0532V24.8657C21.1841 24.6766 21.0294 24.5219 20.8403 24.5219H19.4653C19.2763 24.5219 19.1216 24.6766 19.1216 24.8657H18.4341V23.4907C18.4341 20.3582 20.3634 17.5524 23.2853 16.4266C23.3454 16.5426 23.4614 16.6157 23.5903 16.6114H28.4028C28.5317 16.6114 28.6478 16.5383 28.7079 16.4266C29.6962 16.809 30.5942 17.3934 31.3419 18.1411C32.7642 19.5547 33.5634 21.4797 33.5591 23.4864V24.8614H32.8716C32.8716 24.6723 32.7169 24.5176 32.5278 24.5176H31.1528C30.9638 24.5176 30.8091 24.6723 30.8091 24.8614V31.0489C30.8091 31.2379 30.9638 31.3926 31.1528 31.3926H32.5278C32.7169 31.3926 32.8716 31.2379 32.8716 31.0489H34.9341C35.1231 31.0489 35.2778 30.8942 35.2778 30.7051V30.3614H35.4497C36.1157 30.3614 36.6528 29.8243 36.6528 29.1582V26.752C36.6528 26.0903 36.1157 25.5532 35.4497 25.5532ZM16.7153 29.6782H16.5435C16.2599 29.6782 16.0278 29.4461 16.0278 29.1625V26.7563C16.0278 26.4727 16.2599 26.2407 16.5435 26.2407H16.7153V29.6782ZM24.9653 33.8032H27.0278V34.4907H24.9653V33.8032ZM19.8091 25.2094H20.4966V30.7094H19.8091V25.2094ZM19.1216 25.5532V30.3657H17.4028V25.5532H19.1216ZM28.0591 15.9282H23.9341V15.2407H28.0591V15.9282ZM32.1841 30.7094H31.4966V25.2094H32.1841V30.7094ZM34.5903 30.3657H32.8716V25.5532H34.5903V30.3657ZM35.9653 29.1625C35.9653 29.4461 35.7333 29.6782 35.4497 29.6782H35.2778V26.2407H35.4497C35.7333 26.2407 35.9653 26.4727 35.9653 26.7563V29.1625Z" fill="white"/>
</g>
<defs>
<clipPath id="clip0_2705_2807">
<rect width="22" height="22" fill="white" transform="translate(14.9966 14.2094)"/>
</clipPath>
</defs>
</svg>
